<svg width="18" height="15" viewBox="0 0 18 15" fill="none" xmlns="http://www.w3.org/2000/svg">
<path d="M3 14H15C15.3978 14 15.7794 13.842 16.0607 13.5607C16.342 13.2794 16.5 12.8978 16.5 12.5V5C16.5 4.60218 16.342 4.22064 16.0607 3.93934C15.7794 3.65804 15.3978 3.5 15 3.5H9.0525C8.80544 3.49872 8.56252 3.43644 8.34532 3.31868C8.12813 3.20092 7.94338 3.03134 7.8075 2.825L7.1925 1.925C7.05662 1.71866 6.87187 1.54908 6.65468 1.43132C6.43748 1.31356 6.19456 1.25128 5.9475 1.25H3C2.60218 1.25 2.22064 1.40804 1.93934 1.68934C1.65804 1.97064 1.5 2.35218 1.5 2.75V12.5C1.5 13.325 2.175 14 3 14Z" stroke="white" stroke-width="2" stroke-linecap="round" stroke-linejoin="round"/>
</svg>
