<svg version="1.2" xmlns="http://www.w3.org/2000/svg" viewBox="0 0 180 26" width="180" height="26"><style>.a{display:none;fill:#fff}.b{fill:#fff}</style><path fill-rule="evenodd" class="a" d="m17 8q0 1.4-0.8 2.7-0.7 1.3-1.9 2.3-1.2 1-2.8 1.5-1.6 0.6-3.5 0.6-0.6 0-1-0.1-0.4-0.2-0.8-0.7-1.3 2.8-2.2 5.2-0.8 2.4-1.2 4.6-1-0.2-1.7-0.8-0.6-0.6-1.1-1.5 0.3-0.5 0.6-1.3 0.4-0.8 0.9-2 0.5-1.2 1.2-2.8 0.7-1.7 1.6-3.9 0.5-1 0.8-1.7 0.3-0.8 0.5-1.4 0.3-0.7 0.4-1.4 0.2-0.6 0.5-1.4-1.3 0.4-2.3 0.9-1 0.5-1.7 1.1-0.2-0.1-0.5-0.5-0.2-0.3-0.4-0.6-0.2-0.4-0.4-0.8-0.2-0.4-0.2-0.7 0.8-0.5 1.9-1 1.1-0.4 2.4-0.7 1.3-0.4 2.6-0.6 1.4-0.1 2.6-0.1 1.5 0 2.7 0.4 1.2 0.3 2 1 0.9 0.7 1.3 1.6 0.5 0.9 0.5 2.1zm-4.7-3.1q-1 0-2 0.1l0.3 0.5q-0.2 0.3-0.6 1-0.4 0.7-0.9 1.6-0.5 1-1 2.1-0.6 1.2-1.2 2.5 2 0 3.7-0.3 1.6-0.4 2.8-1.1 1.2-0.7 1.9-1.5 0.6-0.9 0.6-1.9 0-1.4-0.9-2.2-0.9-0.8-2.7-0.8z"/><path fill-rule="evenodd" class="a" d="m24.7 11.2q-0.1 1.6-0.6 2.8-0.4 1.2-1.3 2-0.9 0.9-2.1 1.6-1.3 0.7-2.9 1.4 0 0.1-0.1 0.3 0 0.2 0 0.3 0 0.4 0.1 0.7 0 0.4 0.2 0.7 0.1 0.3 0.3 0.5 0.3 0.2 0.6 0.2 0.7 0 1.4-0.3 0.7-0.3 1.3-0.8 0.6-0.4 1.1-0.9 0.6-0.6 1-1 0.2 0.2 0.4 0.4-1.1 1.6-2.5 2.6-1.4 1-2.7 1.3-1.8-0.2-2.8-1.3-1-1.1-1-2.7 0-1 0.3-2.1 0.3-1.1 0.9-2.2 0.5-1 1.2-1.9 0.7-0.9 1.5-1.6 0.9-0.7 1.7-1.1 0.9-0.3 1.8-0.3 1.2 0.1 2.2 1.4zm-1.8 0.9q-0.7 0.1-1.4 0.6-0.8 0.4-1.5 1.2-0.6 0.8-1.2 1.8-0.5 1.1-0.8 2.3 2-1.1 3.4-2.6 1.4-1.5 1.5-3.3z"/><path class="a" d="m25.3 21.5q0.1-0.8 0.4-2 0.4-1.2 0.8-2.6 0.4-1.4 0.9-2.8 0.5-1.4 1-2.6 0.3-0.8 0.6-1.2 0.3-0.5 0.6-0.8 0.3 0.1 0.7 0.2 0.4 0.1 0.8 0.3 0.3 0.2 0.6 0.4 0.3 0.2 0.5 0.4-0.7 0.8-1.3 1.9-0.5 1-1 2.7 1.4-1.3 2.4-2.4 1.1-1.1 2.1-2.5 0.1-0.2 0.5-0.2 0.4 0 0.7 0.2 0.3 0.1 0.5 0.3-0.5 1.2-0.5 2.4 0 1.2 0.3 1.8 0 0.1-0.3 0.6-0.3 0.4-0.7 0.8-0.7-0.4-1.3-1-0.5-0.7-0.8-1.4-1.2 0.8-2.1 1.7-0.8 0.8-1.4 1.8-0.6 1-1.1 2.3-0.4 1.3-0.8 3.1-0.2 0-0.6-0.2-0.3-0.1-0.6-0.3-0.3-0.2-0.6-0.5-0.2-0.2-0.3-0.4z"/><path fill-rule="evenodd" class="a" d="m45 11.7q-0.1 0.4-0.2 1-0.2 0.5-0.4 1-0.2 0.4-0.4 0.7-0.2 0.2-0.4 0.2-0.3 0-0.4-0.3 0-0.1 0.1-0.3 0-0.2 0.1-0.4 0.1-0.2 0.2-0.4 0-0.2 0-0.4 0-0.3-0.2-0.5-0.1-0.3-0.4-0.3-1 0-1.6 1.3-0.5 1.3-0.5 3.8 0 0.3 0 0.3 0.5 0 1 0 0.4 0 0.8 0 0 0 0 0.2 0 0.2-0.1 0.3-0.6 0.1-0.9 0.3-0.4 0-0.5 0.1-0.2 0.1-0.3 0.2 0 0.1 0 0.2 0 0.2 0 0.4 0 0.2 0 0.6 0 2.1-1.2 3.5-1.1 1.3-3.2 1.5-0.4 0-0.8-0.2-0.4-0.2-0.8-0.5-0.3-0.3-0.6-0.6-0.2-0.4-0.3-0.7 0-1 0.4-1.9 0.4-0.9 1.1-1.6 0.7-0.7 1.7-1.1 1-0.4 2.1-0.5 0-0.7-0.1-1.3-0.1-0.6-0.3-1.2-0.1-0.6-0.2-1.1-0.2-0.6-0.2-1.2 0-0.7 0.3-1.3 0.3-0.7 0.8-1.3 0.4-0.6 1.1-1 0.6-0.4 1.3-0.6 0.3 0.1 0.7 0.5 0.5 0.3 1 0.8 0.5 0.5 0.8 1 0.4 0.4 0.5 0.8zm-8.6 11.8q0.6-0.3 1.1-0.7 0.6-0.5 1-1.2 0.5-0.6 0.7-1.3 0.2-0.7 0.2-1.4-0.5 0.1-1.1 0.5-0.6 0.4-1.2 1-0.5 0.5-0.9 1.1-0.3 0.6-0.3 1.1 0 0.5 0.5 0.9z"/><path fill-rule="evenodd" class="a" d="m48 22.9q-1.4-0.1-2.3-1.3-0.9-1.1-0.9-2.9 0-1 0.3-2.2 0.3-1.1 0.9-2.1 0.6-1.1 1.3-2 0.8-1 1.7-1.6 1.5-1.1 2.7-1.1 0.8 0.4 1.6 1.8 0.2 0 0.3 0 0.1 0 0.2 0 1.4 0 1.4 2.5 0 1.6-0.6 3.1-0.5 1.4-1.4 2.6-1 1.2-2.3 2.1-1.3 0.8-2.9 1.1zm1.4-8.2q-0.5 0.6-0.9 1.3-0.4 0.7-0.6 1.4-0.3 0.8-0.5 1.4-0.1 0.7-0.1 1.2 0 0.6 0.2 1.2 0.2 0.6 0.4 0.6 1.2-0.2 2.2-0.9 1-0.7 1.7-1.8 0.7-1.1 1.1-2.4 0.4-1.4 0.4-2.9 0-0.7-0.1-1.1-0.1-0.4-0.2-0.7-1.2 0.4-2.1 1.1-0.9 0.8-1.5 1.6z"/><path class="a" d="m60.7 9.4q0.6 0.2 1.2 0.9 0.6 0.7 0.9 1.6-0.3 0.7-0.9 1.7-0.6 1-1.2 2-0.6 1-1.1 2-0.4 0.9-0.5 1.5 0.4-0.5 0.9-1.1 0.5-0.6 1-1.1 0.5-0.6 0.9-1.1 0.4-0.5 0.7-0.7 0.5-0.5 1.1-1.2 0.7-0.7 1.4-1.3 0.8-0.6 1.5-1.1 0.8-0.4 1.4-0.4 0.7 0 1.1 0.5 0.5 0.4 0.8 0.9 0 0.1-0.2 0.2-0.2 0-0.6 0.5-0.4 0.4-0.8 1.3-0.5 0.8-0.9 1.7-0.4 1-0.7 2-0.3 0.9-0.3 1.7 0 0.7 0.2 0.9 0.1 0.2 0.5 0.2 0.2 0 0.6-0.2 0.3-0.1 0.5-0.1 0.1 0.1 0.1 0.2 0.1 0.2 0.1 0.3-0.2 0.2-0.5 0.4-0.3 0.2-0.6 0.3-0.3 0.2-0.6 0.3-0.3 0.1-0.6 0.1-0.7 0-1.2-0.2-0.5-0.3-0.8-0.6-0.2-0.4-0.3-0.9-0.1-0.5-0.1-1.1 0-0.3 0-0.7 0.1-0.4 0.2-0.9 0.2-0.5 0.5-1.3 0.3-0.7 0.7-1.8 0 0-0.7 0.4-0.6 0.4-1.4 1.1-1.2 1.2-2.2 2.3-1 1.2-2 2.6-0.6 0.8-1 1.3-0.4 0.6-0.7 0.8-0.6-0.3-0.8-0.9-0.3-0.5-0.4-1.1 0-0.5 0.1-1.3 0.2-0.7 0.4-1.6 0.3-1 0.6-2 0.4-1 0.8-2 1-2.3 1.8-3.6 0.9-1.3 1.1-1.4z"/><path class="a" d="m79.5 11.5q0.2 0 0.6 0.1 0.3 0.1 0.6 0.2 0.3 0.2 0.5 0.3 0.2 0.2 0.2 0.3-0.5 1.1-1 2.2-0.4 1.1-0.7 2.1-0.3 1-0.5 1.9-0.2 0.9-0.2 1.6 0 0.7 0.2 1.2 0.1 0.4 0.5 0.7-0.3 0.2-0.8 0.3-0.5 0.1-0.9 0.1-1.4 0-1.4-1.9 0-1.5 1-4.1-0.5 1.2-1.2 2.3-0.7 1-1.4 1.8-0.7 0.9-1.4 1.4-0.7 0.5-1.3 0.6-1-0.1-1.6-0.9-0.6-0.9-0.6-2.3 0-1.4 0.7-3 0.6-1.7 1.5-3 1-1.4 2.2-2.3 1.1-1 2.2-1 0.2 0.1 0.6 0.3 0.3 0.2 0.6 0.5 0.3 0.4 0.5 0.7 0.2 0.3 0.2 0.5-1 0.2-2.1 1.1-1.1 0.8-2 2-0.9 1.2-1.5 2.6-0.6 1.4-0.6 2.6 0 0.5 0.4 0.6 0.8-0.1 1.7-1.3 1-1.1 2.4-3.5 0.3-0.4 0.6-1 0.4-0.6 0.7-1.2 0.3-0.6 0.6-1.3 0.4-0.6 0.7-1.2z"/><path class="a" d="m82.7 20.3q0-1.1 0.5-3.2 0.6-2 1.6-4.8 1.6-4.4 3-7.3 1.4-2.9 2.8-4.6 0.3 0.1 0.7 0.3 0.5 0.2 0.9 0.4 0.5 0.3 0.8 0.5 0.4 0.3 0.5 0.5-2.1 2.4-3.6 5.1-1.5 2.8-2.8 6.3-1.1 3.1-1.7 5.6-0.5 2.4-0.5 4 0 0.5 0 0.6 0 0.1 0 0.2-0.4-0.1-0.6-0.2-0.3-0.1-0.4-0.3 0-0.1-0.3-0.4-0.2-0.2-0.4-0.4-0.2-0.1-0.4-0.8-0.1-0.6-0.1-1.5z"/><path class="a" d="m104.9 2.8q1 0 2.1 0.4 1 0.3 1.8 0.9-0.2 1.3-0.5 2.4-0.2 1-0.4 1.9-0.1 0.9-0.3 1.6-0.2 0.7-0.3 1.3-0.7 2.4-1.3 4.3-0.7 1.9-1.4 3.4-0.8 1.5-1.6 2.6-0.8 1.2-1.7 2.1-1 0.8-1.9 1.4-0.9 0.5-1.7 0.7-1 0-1.9-0.2-0.9-0.3-1.5-0.7-0.6-0.4-1-1-0.3-0.5-0.3-1.2 0-0.7 0.3-1.8 0.4-1.1 1.1-2.6 0.4 0 0.8 0.1 0.4 0.2 0.8 0.4 0.4 0.1 0.8 0.4 0.3 0.2 0.5 0.4-0.9 0.8-1.4 1.9-0.5 1-0.5 1.7 0 0.5 0.1 0.8 0.2 0.4 0.6 0.7 1.6-0.6 3.1-2.3 1.5-1.6 2.7-4 0.7-1.4 1.3-3.3 0.6-1.8 0.9-3.7 0.5-1.8 0.7-3.5 0.2-1.7 0.2-2.9 0-0.2 0-0.5 0-0.3 0-0.7 0-0.3-0.1-0.6 0-0.3 0-0.4z"/><path fill-rule="evenodd" class="a" d="m111 22.9q-1.4-0.1-2.3-1.3-0.9-1.1-0.9-2.9 0-1 0.3-2.2 0.3-1.1 0.9-2.1 0.6-1.1 1.3-2 0.8-1 1.7-1.6 1.5-1.1 2.7-1.1 0.8 0.4 1.6 1.8 0.2 0 0.3 0 0.1 0 0.2 0 1.4 0 1.4 2.5 0 1.6-0.6 3.1-0.5 1.4-1.4 2.6-1 1.2-2.3 2.1-1.3 0.8-2.9 1.1zm1.4-8.2q-0.5 0.6-0.9 1.3-0.4 0.7-0.6 1.4-0.3 0.8-0.5 1.4-0.1 0.7-0.1 1.2 0 0.6 0.2 1.2 0.2 0.6 0.4 0.6 1.2-0.2 2.2-0.9 1-0.7 1.7-1.8 0.7-1.1 1.1-2.4 0.4-1.4 0.4-2.9 0-0.7-0.1-1.1-0.1-0.4-0.2-0.7-1.2 0.4-2.1 1.1-0.9 0.8-1.5 1.6z"/><path class="a" d="m126.5 21.4q-0.5-0.4-0.7-1-0.1-0.6-0.1-1.1 0-0.5 0.1-0.9-0.1 0-0.5 0.4-0.3 0.4-0.8 1-0.4 0.6-0.8 1.1-0.4 0.6-0.6 0.8-0.4 0.4-0.7 0.6-0.2 0.2-0.4 0.2-0.4 0-0.9-0.2-0.5-0.1-0.9-0.4-0.4-0.2-0.7-0.6-0.3-0.3-0.4-0.8 0-0.7 0.1-1.2 0-0.5 0.1-1 0.3-1 0.7-2.3 0.5-1.2 1.1-2.4 0.6-1.2 1.3-2.3 0.8-1 1.6-1.6 0.2 0 0.5 0 0.4 0.1 0.7 0.2 0.3 0.1 0.6 0.2 0.3 0.1 0.5 0.4-0.2 0.2-1.2 1.7-0.9 1.5-2.1 4.3-0.1 0.3-0.3 0.8-0.2 0.6-0.4 1.2-0.2 0.6-0.3 1.1-0.1 0.6-0.1 0.9 0 0.3 0.1 0.4 0 0.1 0.1 0.1 0.4-0.1 1-0.8 0.6-0.7 1.6-2.2 0.3-0.4 0.6-0.8 0.4-0.5 0.8-1 0.3-0.6 0.7-1.1 0.3-0.6 0.5-1.2 0.1-0.3 0.3-0.7 0.1-0.5 0.4-0.9 0.2-0.5 0.5-1 0.4-0.5 0.8-0.9 0.4 0 0.8 0.1 0.3 0.1 0.7 0.2 0.3 0.1 0.6 0.3 0.3 0.1 0.4 0.3-0.5 1.1-1 2.2-0.6 1.1-1.1 2.2-0.5 1.1-0.8 2.2-0.4 1-0.4 2 0 0.6 0.1 1 0.1 0.4 0.2 0.7 0.1 0.2 0.2 0.4 0.1 0.2 0.1 0.3 0 0.1-0.1 0.1 0 0 0 0-0.2 0-0.5 0-0.3-0.1-0.6-0.3-0.4-0.1-0.7-0.3-0.4-0.2-0.7-0.4z"/><path class="a" d="m131.7 21.5q0.1-0.8 0.4-2 0.3-1.2 0.8-2.6 0.4-1.4 0.9-2.8 0.5-1.4 1-2.6 0.3-0.8 0.6-1.2 0.2-0.5 0.6-0.8 0.3 0.1 0.7 0.2 0.4 0.1 0.8 0.3 0.3 0.2 0.6 0.4 0.3 0.2 0.5 0.4-0.7 0.8-1.3 1.9-0.5 1-1.1 2.7 1.4-1.3 2.5-2.4 1.1-1.1 2-2.5 0.2-0.2 0.6-0.2 0.4 0 0.7 0.2 0.3 0.1 0.5 0.3-0.5 1.2-0.5 2.4 0 1.2 0.3 1.8 0 0.1-0.3 0.6-0.3 0.4-0.7 0.8-0.7-0.4-1.3-1-0.5-0.7-0.8-1.4-1.2 0.8-2.1 1.7-0.8 0.8-1.5 1.8-0.6 1-1 2.3-0.4 1.3-0.8 3.1-0.2 0-0.6-0.2-0.3-0.1-0.6-0.3-0.3-0.2-0.6-0.5-0.3-0.2-0.3-0.4z"/><path class="b" d="m12.1 16.6c0 1.4-0.7 2.6-2.5 2.6-1.7 0-2.4-1.2-2.4-2.7h-2.2c0 2.9 1.9 4.7 4.6 4.7 2.8 0 4.7-1.8 4.7-4.6v-12.3h-2.2zm18.9-2.3c0-4.1-2.9-6.7-6.6-6.7-3.7 0-6.6 2.6-6.6 6.7 0 4.2 2.8 6.9 6.5 6.9 3.7 0 6.7-2.7 6.7-6.9zm-11 0c0-3.3 2.1-4.8 4.4-4.8 2.2 0 4.4 1.5 4.4 4.8 0 3.4-2.2 4.9-4.5 4.9-2.3 0-4.3-1.5-4.3-4.9zm25.6-6.5h-2.2v7.2c0 2.8-1.5 4.2-3.8 4.2-2.2 0-3.6-1.3-3.6-4v-7.4h-2.2v7.7c0 3.8 2.4 5.6 5.4 5.6 1.8 0 3.4-0.7 4.2-2.1v1.9h2.2zm5.9 6c0-3 1.6-3.9 3.6-3.9h0.6v-2.3c-2.1 0-3.5 0.9-4.2 2.4v-2.2h-2.2v13.2h2.2zm16.4 7.1h2.1v-7.7c0-3.8-2.3-5.6-5.4-5.6-1.7 0-3.3 0.7-4.2 2.1v-1.9h-2.2v13.1h2.2v-7.2c0-2.9 1.6-4.3 3.8-4.3 2.2 0 3.7 1.4 3.7 4.1zm4.9-6.6c0 4.1 2.7 6.8 6.2 6.8 2.4 0 4.1-1.2 4.9-2.6v2.4h2.2v-13.1h-2.2v2.4c-0.7-1.4-2.4-2.7-4.9-2.7-3.5 0-6.2 2.7-6.2 6.8zm11.1 0c0 3.1-2 4.9-4.4 4.9-2.4 0-4.5-1.8-4.5-4.9 0-3.1 2.1-4.9 4.5-4.9 2.4 0 4.4 1.9 4.4 4.9zm5.9 6.6h2.2v-17.8h-2.2z"/><path class="a" d="m147 9.4q0.7 0.2 1.3 0.9 0.6 0.7 0.8 1.6-0.2 0.7-0.8 1.7-0.6 1-1.2 2-0.6 1-1.1 2-0.5 0.9-0.6 1.5 0.4-0.5 0.9-1.1 0.6-0.6 1-1.1 0.5-0.6 0.9-1.1 0.5-0.5 0.7-0.7 0.5-0.5 1.2-1.2 0.6-0.7 1.4-1.3 0.7-0.6 1.5-1.1 0.7-0.4 1.3-0.4 0.7 0 1.2 0.5 0.4 0.4 0.7 0.9 0 0.1-0.2 0.2-0.2 0-0.6 0.5-0.3 0.4-0.8 1.3-0.4 0.8-0.9 1.7-0.4 1-0.7 2-0.3 0.9-0.3 1.7 0 0.7 0.2 0.9 0.2 0.2 0.5 0.2 0.3 0 0.6-0.2 0.3-0.1 0.5-0.1 0.1 0.1 0.1 0.2 0.1 0.2 0.1 0.3-0.2 0.2-0.5 0.4-0.3 0.2-0.6 0.3-0.3 0.2-0.6 0.3-0.3 0.1-0.5 0.1-0.8 0-1.3-0.2-0.4-0.3-0.7-0.6-0.3-0.4-0.4-0.9-0.1-0.5-0.1-1.1 0-0.3 0.1-0.7 0-0.4 0.2-0.9 0.1-0.5 0.4-1.3 0.3-0.7 0.7-1.8 0 0-0.7 0.4-0.6 0.4-1.4 1.1-1.2 1.2-2.2 2.3-0.9 1.2-2 2.6-0.5 0.8-1 1.3-0.4 0.6-0.7 0.8-0.5-0.3-0.8-0.9-0.3-0.5-0.4-1.1 0-0.5 0.1-1.3 0.2-0.7 0.4-1.6 0.3-1 0.7-2 0.3-1 0.8-2 0.9-2.3 1.8-3.6 0.8-1.3 1-1.4z"/><path class="a" d="m165.8 11.5q0.3 0 0.6 0.1 0.4 0.1 0.6 0.2 0.3 0.2 0.5 0.3 0.2 0.2 0.2 0.3-0.5 1.1-0.9 2.2-0.5 1.1-0.8 2.1-0.3 1-0.5 1.9-0.2 0.9-0.2 1.6 0 0.7 0.2 1.2 0.2 0.4 0.5 0.7-0.3 0.2-0.8 0.3-0.5 0.1-0.9 0.1-1.4 0-1.4-1.9 0-1.5 1-4.1-0.5 1.2-1.2 2.3-0.7 1-1.4 1.8-0.7 0.9-1.4 1.4-0.7 0.5-1.3 0.6-0.9-0.1-1.5-0.9-0.6-0.9-0.6-2.3 0-1.4 0.6-3 0.6-1.7 1.6-3 1-1.4 2.1-2.3 1.1-1 2.2-1 0.3 0.1 0.6 0.3 0.3 0.2 0.6 0.5 0.3 0.4 0.5 0.7 0.2 0.3 0.3 0.5-1.1 0.2-2.2 1.1-1.1 0.8-2 2-0.9 1.2-1.5 2.6-0.5 1.4-0.5 2.6 0 0.5 0.3 0.6 0.8-0.1 1.8-1.3 1-1.1 2.4-3.5 0.2-0.4 0.5-1 0.4-0.6 0.7-1.2 0.4-0.6 0.7-1.3 0.3-0.6 0.6-1.2z"/><path class="a" d="m169 20.3q0-1.1 0.6-3.2 0.5-2 1.5-4.8 1.6-4.4 3-7.3 1.4-2.9 2.8-4.6 0.3 0.1 0.7 0.3 0.5 0.2 0.9 0.4 0.5 0.3 0.8 0.5 0.4 0.3 0.5 0.5-2 2.4-3.6 5.1-1.5 2.8-2.8 6.3-1.1 3.1-1.6 5.6-0.6 2.4-0.6 4 0 0.5 0 0.6 0 0.1 0 0.2-0.3-0.1-0.6-0.2-0.3-0.1-0.3-0.3-0.1-0.1-0.3-0.4-0.3-0.2-0.4-0.4-0.3-0.1-0.4-0.8-0.2-0.6-0.2-1.5z"/></svg>